<?xml version="1.0" encoding="UTF-8" standalone="no"?>
<!DOCTYPE svg PUBLIC "-//W3C//DTD SVG 1.1//EN" "http://www.w3.org/Graphics/SVG/1.1/DTD/svg11.dtd">
<svg width="100%" height="100%" viewBox="0 0 577 566" version="1.1" xmlns="http://www.w3.org/2000/svg" xmlns:xlink="http://www.w3.org/1999/xlink" xml:space="preserve" xmlns:serif="http://www.serif.com/" style="fill-rule:evenodd;clip-rule:evenodd;">
    <g transform="matrix(1,0,0,1,-223.18,-81.99)">
        <path id="Sheet" d="M643.57,83.07C651.8,85.08 658.96,89.03 664.92,94.81C671.58,101.27 680.22,109.88 690.84,120.64C725.4,155.627 755.94,186.367 782.46,212.86C785.12,215.52 787.377,217.927 789.23,220.08C793.503,225.04 796.577,230.793 798.45,237.34C799.483,240.96 799.983,247.597 799.95,257.25C799.89,273.563 799.883,387.953 799.93,600.42C799.93,606.687 799.48,611.517 798.58,614.91C794.28,631.19 781.16,643.59 764.45,647.01C761.577,647.597 756.593,647.89 749.5,647.89C631.5,647.877 472.17,647.873 271.51,647.88C263.75,647.887 258.23,647.437 254.95,646.53C240.39,642.53 228.71,631.33 224.69,616.89C223.677,613.25 223.173,606.437 223.18,596.45C223.267,422.303 223.267,264.927 223.18,124.32C223.18,122.607 223.297,120.893 223.53,119.18C223.897,116.44 224.167,114.743 224.34,114.09C227.387,102.377 233.783,93.697 243.53,88.05C250.49,84.023 258.067,82.007 266.26,82C379.453,81.987 500.983,81.987 630.85,82C636.403,82 640.643,82.357 643.57,83.07Z" style="fill:rgb(217,62,59);fill-rule:nonzero;"/>
        <g id="Stripes">
            <path d="M481.2,169.02C481.2,164.406 477.404,160.61 472.79,160.61L290.65,160.61C286.036,160.61 282.24,164.406 282.24,169.02L282.24,172.66C282.24,177.274 286.036,181.07 290.65,181.07L472.79,181.07C477.404,181.07 481.2,177.274 481.2,172.66L481.2,169.02" style="fill:none;fill-rule:nonzero;stroke:rgb(126,49,47);stroke-width:2px;"/>
            <path d="M454.11,221.91C454.11,217.181 450.219,213.29 445.49,213.29L290.79,213.29C286.061,213.29 282.17,217.181 282.17,221.91L282.17,225.01C282.17,229.739 286.061,233.63 290.79,233.63L445.49,233.63C450.219,233.63 454.11,229.739 454.11,225.01L454.11,221.91" style="fill:none;fill-rule:nonzero;stroke:rgb(126,49,47);stroke-width:2px;"/>
            <path d="M437.36,274.52C437.36,269.676 433.374,265.69 428.53,265.69L291.07,265.69C286.226,265.69 282.24,269.676 282.24,274.52L282.24,277.86C282.24,282.704 286.226,286.69 291.07,286.69L428.53,286.69C433.374,286.69 437.36,282.704 437.36,277.86L437.36,274.52" style="fill:none;fill-rule:nonzero;stroke:rgb(126,49,47);stroke-width:2px;"/>
            <path d="M481.2,169.02L481.2,172.66C481.2,177.302 477.432,181.07 472.79,181.07L290.65,181.07C286.008,181.07 282.24,177.302 282.24,172.66L282.24,169.02C282.24,164.378 286.008,160.61 290.65,160.61L472.79,160.61C477.432,160.61 481.2,164.378 481.2,169.02Z" style="fill:rgb(35,36,35);"/>
            <path d="M454.11,221.91L454.11,225.01C454.11,229.768 450.248,233.63 445.49,233.63L290.79,233.63C286.032,233.63 282.17,229.768 282.17,225.01L282.17,221.91C282.17,217.152 286.032,213.29 290.79,213.29L445.49,213.29C450.248,213.29 454.11,217.152 454.11,221.91Z" style="fill:rgb(35,36,35);"/>
            <path d="M437.36,274.52L437.36,277.86C437.36,282.733 433.403,286.69 428.53,286.69L291.07,286.69C286.197,286.69 282.24,282.733 282.24,277.86L282.24,274.52C282.24,269.647 286.197,265.69 291.07,265.69L428.53,265.69C433.403,265.69 437.36,269.647 437.36,274.52Z" style="fill:rgb(35,36,35);"/>
        </g>
        <g id="Helmet" transform="matrix(1.48408,0,0,1.48408,-235.675,-202.184)">
            <path d="M417.46,455.5L437.16,455.5C437.542,455.5 437.859,455.187 437.87,454.8C438.38,429.02 454.52,406.84 477.24,395.8C499.74,384.86 522.423,385.27 545.29,397.03C545.302,397.036 545.314,397.042 545.326,397.048C545.856,397.3 546.502,397.066 546.756,396.531C546.761,396.521 546.765,396.51 546.77,396.5C552.54,383.2 560.43,370.01 568.82,358.4C568.83,358.386 568.84,358.372 568.849,358.357C569.079,357.989 568.961,357.496 568.589,357.263C568.576,357.255 568.563,357.247 568.55,357.24C554,349.3 538.5,345.29 521.94,344.9C514.333,344.72 508.95,344.783 505.79,345.09C477.923,347.817 455.517,359.37 438.57,379.75C420.86,401.05 414.3,428.16 417.13,455.2C417.155,455.372 417.296,455.501 417.46,455.5" style="fill:none;fill-rule:nonzero;stroke:rgb(236,158,155);stroke-width:2px;"/>
            <path d="M591.09,505.97C590.117,500.83 588.947,495.813 587.58,490.92C582.35,472.21 577.93,456.28 571.95,440.61C571.949,440.606 571.947,440.603 571.946,440.599C571.812,440.274 571.44,440.115 571.12,440.246C571.117,440.247 571.113,440.249 571.11,440.25C569.243,441.057 566.81,441.917 563.81,442.83C549.057,447.337 533.883,451.403 518.29,455.03C518.26,455.037 518.23,455.04 518.199,455.04C517.974,455.04 517.789,454.855 517.789,454.63C517.789,454.526 517.829,454.426 517.9,454.35C518.14,454.103 518.487,453.877 518.94,453.67C533.827,446.857 549.233,439.473 565.16,431.52C565.395,431.404 565.544,431.164 565.544,430.901C565.544,430.793 565.519,430.687 565.47,430.59C550.91,401.89 518.38,387.73 487.87,398.94C469.7,405.62 453.3,421.79 447.88,440.93C444.24,453.78 445.02,467.79 446.89,481.04C447.31,483.98 447.01,486.21 445.72,488.72C439.707,500.34 432.237,511.547 423.31,522.34C423.263,522.396 423.237,522.467 423.237,522.54C423.237,522.708 423.373,522.846 423.54,522.85C438.74,523.783 453.717,522.943 468.47,520.33C475.117,519.157 480.923,517.59 485.89,515.63C486.593,515.355 487.396,515.503 487.96,516.01C491.58,519.277 494.807,522.053 497.64,524.34C519.12,541.7 543.55,552.387 570.93,556.4C570.951,556.403 570.972,556.405 570.993,556.405C571.229,556.405 571.423,556.211 571.423,555.975C571.423,555.956 571.422,555.938 571.42,555.92C567.64,527.9 564.64,506.283 562.42,491.07C562.227,489.73 561.477,488.883 560.17,488.53C554.117,486.903 547.797,484.99 541.21,482.79C538.743,481.963 537.003,481.013 535.99,479.94C532.803,476.553 530.077,472.617 527.81,468.13C527.794,468.096 527.786,468.058 527.786,468.02C527.786,467.877 527.903,467.76 528.046,467.76C528.047,467.76 528.049,467.76 528.05,467.76L566.88,469.44C567.554,469.471 568.129,469.947 568.28,470.6L575.22,500.66C575.338,501.161 575.715,501.565 576.21,501.72L590.76,506.27C590.784,506.277 590.81,506.281 590.835,506.281C590.978,506.281 591.095,506.164 591.095,506.021C591.095,506.004 591.093,505.987 591.09,505.97" style="fill:none;fill-rule:nonzero;stroke:rgb(236,158,155);stroke-width:2px;"/>
            <path d="M417.46,455.5C417.296,455.501 417.155,455.372 417.13,455.2C414.3,428.16 420.86,401.05 438.57,379.75C455.517,359.37 477.923,347.817 505.79,345.09C508.95,344.783 514.333,344.72 521.94,344.9C538.5,345.29 554,349.3 568.55,357.24C568.563,357.247 568.576,357.255 568.589,357.263C568.961,357.496 569.079,357.989 568.849,358.357C568.84,358.372 568.83,358.386 568.82,358.4C560.43,370.01 552.54,383.2 546.77,396.5C546.765,396.51 546.761,396.521 546.756,396.531C546.502,397.066 545.856,397.3 545.326,397.048C545.314,397.042 545.302,397.036 545.29,397.03C522.423,385.27 499.74,384.86 477.24,395.8C454.52,406.84 438.38,429.02 437.87,454.8C437.859,455.187 437.542,455.5 437.16,455.5L417.46,455.5Z" style="fill:rgb(254,253,251);fill-rule:nonzero;"/>
            <path d="M590.76,506.27L576.21,501.72C575.715,501.565 575.338,501.161 575.22,500.66L568.28,470.6C568.129,469.947 567.554,469.471 566.88,469.44L528.05,467.76C528.049,467.76 528.047,467.76 528.046,467.76C527.903,467.76 527.786,467.877 527.786,468.02C527.786,468.058 527.794,468.096 527.81,468.13C530.077,472.617 532.803,476.553 535.99,479.94C537.003,481.013 538.743,481.963 541.21,482.79C547.797,484.99 554.117,486.903 560.17,488.53C561.477,488.883 562.227,489.73 562.42,491.07C564.64,506.283 567.64,527.9 571.42,555.92C571.422,555.938 571.423,555.956 571.423,555.975C571.423,556.211 571.229,556.405 570.993,556.405C570.972,556.405 570.951,556.403 570.93,556.4C543.55,552.387 519.12,541.7 497.64,524.34C494.807,522.053 491.58,519.277 487.96,516.01C487.396,515.503 486.593,515.355 485.89,515.63C480.923,517.59 475.117,519.157 468.47,520.33C453.717,522.943 438.74,523.783 423.54,522.85C423.373,522.846 423.237,522.708 423.237,522.54C423.237,522.467 423.263,522.396 423.31,522.34C432.237,511.547 439.707,500.34 445.72,488.72C447.01,486.21 447.31,483.98 446.89,481.04C445.02,467.79 444.24,453.78 447.88,440.93C453.3,421.79 469.7,405.62 487.87,398.94C518.38,387.73 550.91,401.89 565.47,430.59C565.519,430.687 565.544,430.793 565.544,430.901C565.544,431.164 565.395,431.404 565.16,431.52C549.233,439.473 533.827,446.857 518.94,453.67C518.487,453.877 518.14,454.103 517.9,454.35C517.829,454.426 517.789,454.526 517.789,454.63C517.789,454.855 517.974,455.04 518.199,455.04C518.23,455.04 518.26,455.037 518.29,455.03C533.883,451.403 549.057,447.337 563.81,442.83C566.81,441.917 569.243,441.057 571.11,440.25C571.113,440.249 571.117,440.247 571.12,440.246C571.44,440.115 571.812,440.274 571.946,440.599C571.947,440.603 571.949,440.606 571.95,440.61C577.93,456.28 582.35,472.21 587.58,490.92C588.947,495.813 590.117,500.83 591.09,505.97C591.093,505.987 591.095,506.004 591.095,506.021C591.095,506.164 590.978,506.281 590.835,506.281C590.81,506.281 590.784,506.277 590.76,506.27Z" style="fill:rgb(254,253,251);fill-rule:nonzero;"/>
        </g>
    </g>
</svg>
